<svg xmlns="http://www.w3.org/2000/svg" width="1000" height="560">
<rect width="100%" height="100%" fill="#f4f4f4"/>
<style>text{font-family:Arial}.title{font-size:26px;font-weight:bold}.head{font-size:18px;font-weight:bold}.field{font-size:15px}</style>
<text x="35" y="45" class="title">DER — Sistema Just in Time</text>
<rect x="40" y="100" width="260" height="250" fill="white" stroke="#222" stroke-width="2"/>
<rect x="370" y="100" width="260" height="300" fill="white" stroke="#222" stroke-width="2"/>
<rect x="700" y="100" width="260" height="280" fill="white" stroke="#222" stroke-width="2"/>
<text x="140" y="130" class="head">USUARIO</text>
<text x="60" y="165" class="field">PK id</text><text x="60" y="192" class="field">nome</text><text x="60" y="219" class="field">email (UNIQUE)</text><text x="60" y="246" class="field">senha</text><text x="60" y="273" class="field">criado_em</text>
<text x="455" y="130" class="head">PRODUCAO</text>
<text x="390" y="165" class="field">PK id</text><text x="390" y="192" class="field">FK produto_id</text><text x="390" y="219" class="field">FK usuario_id</text><text x="390" y="246" class="field">tipo</text><text x="390" y="273" class="field">quantidade</text><text x="390" y="300" class="field">data_movimentacao</text><text x="390" y="327" class="field">criado_em</text>
<text x="785" y="130" class="head">PRODUTO</text>
<text x="720" y="165" class="field">PK id</text><text x="720" y="192" class="field">nome</text><text x="720" y="219" class="field">descricao</text><text x="720" y="246" class="field">custo</text><text x="720" y="273" class="field">quantidade_estoque</text><text x="720" y="300" class="field">estoque_minimo</text><text x="720" y="327" class="field">criado_em</text>
<line x1="300" y1="220" x2="370" y2="220" stroke="#222" stroke-width="2"/><text x="320" y="210" class="field">1 : N</text>
<line x1="700" y1="220" x2="630" y2="220" stroke="#222" stroke-width="2"/><text x="645" y="210" class="field">1 : N</text>
</svg>